Coordinates
version=1
nRows=24
nColumns=24
inDegrees=yes

Units are S.I. units (second, meters, Newtons, ...)
Angles are in degrees.

endheader
time	pelvis_tilt	pelvis_list	pelvis_rotation	pelvis_tx	pelvis_ty	pelvis_tz	hip_flexion_r	hip_adduction_r	hip_rotation_r	knee_angle_r	ankle_angle_r	subtalar_angle_r	mtp_angle_r	hip_flexion_l	hip_adduction_l	hip_rotation_l	knee_angle_l	ankle_angle_l	subtalar_angle_l	mtp_angle_l	lumbar_extension	lumbar_bending	lumbar_rotation
      1.12100000	     -1.16934211	      1.18201769	     -8.18135222	     -0.12611865	      0.99361908	      0.33220734	    -13.30637875	      0.32706778	     -0.89300716	    -11.35950156	     10.12090917	     -0.19979044	     12.96014495	     21.52799350	      1.32577272	    -15.54108928	      4.50274767	      0.92584367	     -1.30361308	      9.16039480	     -4.56965654	     -1.41032360	     15.34022928
      1.12516667	     -1.10411141	      1.29581614	     -8.25712543	     -0.12003178	      0.99317285	      0.33214847	    -13.47770587	      0.09369089	     -0.95872598	    -11.85407028	     10.17304523	      0.12987655	     13.04701778	     21.44294780	      1.49656868	    -15.26231242	      4.23350466	      0.78658253	     -1.84900965	      9.17435426	     -4.56533898	     -1.60137034	     15.54007050
      1.12933333	     -1.05908910	      1.40815506	     -8.32099175	     -0.11394266	      0.99274046	      0.33208743	    -13.62539181	     -0.12538824	     -0.97741115	    -12.34551912	     10.09960825	      0.28364534	     13.14552372	     21.40333149	      1.65725306	    -15.00323444	      3.86215157	      0.64226636	     -2.29826882	      9.19928717	     -4.54669881	     -1.76382961	     15.64829653
      1.13350000	     -1.00413379	      1.53358246	     -8.38810684	     -0.10781428	      0.99235296	      0.33202364	    -13.76892484	     -0.36228044	     -0.99721168	    -12.86247858	     10.01232311	      0.44117725	     13.25888747	     21.34607063	      1.83031876	    -14.71637552	      3.45874167	      0.44089453	     -2.76993251	      9.23396661	     -4.54191677	     -1.94189283	     15.76059843
      1.13766667	     -0.97232953	      1.64714779	     -8.45505512	     -0.10168505	      0.99197394	      0.33194959	    -13.86329441	     -0.58494230	     -1.02365773	    -13.42604355	      9.90682458	      0.62326322	     13.42785078	     21.30967973	      1.98619812	    -14.36377528	      3.02102536	      0.15212254	     -3.35218544	      9.29018826	     -4.50985992	     -2.08454047	     15.89044184
      1.14183333	     -0.91613563	      1.78579365	     -8.52567965	     -0.09550692	      0.99165499	      0.33189217	    -13.97014785	     -0.83787781	     -1.04375977	    -14.00999660	      9.76361174	      0.77105237	     13.63091820	     21.23533204	      2.17016582	    -13.99040099	      2.57460812	     -0.15407658	     -3.92426069	      9.36196285	     -4.49561877	     -2.27932673	     16.00437304
      1.14600000	     -0.87219908	      1.93443709	     -8.59741684	     -0.08929983	      0.99135279	      0.33182731	    -14.04061730	     -1.10183236	     -1.07106654	    -14.63524287	      9.59345385	      0.92497718	     13.86524831	     21.17148563	      2.36127907	    -13.59767136	      2.10555382	     -0.50682333	     -4.52144039	      9.44559806	     -4.46093261	     -2.48140108	     16.11746333
      1.15016667	     -0.83801755	      2.09193383	     -8.66903082	     -0.08306498	      0.99107635	      0.33175841	    -14.07790817	     -1.37452926	     -1.09705675	    -15.29926810	      9.38768869	      1.06799763	     14.14011368	     21.11277151	      2.55969919	    -13.18304145	      1.62392045	     -0.90327093	     -5.14626819	      9.54042748	     -4.40908017	     -2.69350494	     16.22842214
      1.15433333	     -0.79429819	      2.26403312	     -8.72857217	     -0.07680109	      0.99084151	      0.33167571	    -14.10816461	     -1.66232643	     -1.14198244	    -15.98574960	      9.10141047	      1.08022977	     17.67667917	     21.04672838	      2.77591855	    -12.77266398	      1.12339304	     -1.34039101	     -5.76544453	     10.76693658	     -4.36056171	     -2.93082898	     16.26167345
      1.15850000	     -0.75124117	      2.43401609	     -8.81483626	     -0.07052569	      0.99066043	      0.33159858	    -14.09952574	     -1.96041644	     -1.17723473	    -16.74157654	      8.82123121	      1.29920206	     17.72372184	     20.97082986	      2.98185430	    -12.40331136	      0.62436592	     -1.79667939	     -6.33008585	     10.78260748	     -4.31113099	     -3.15435639	     16.42886236
      1.16266667	     -0.70865632	      2.61611745	     -8.88207762	     -0.06423603	      0.99050254	      0.33149167	    -14.07000430	     -2.26607797	     -1.22282386	    -17.53334550	      8.50909969	      1.44269879	     17.82336562	     20.89447578	      3.20712565	    -11.98771942	      0.12162285	     -2.28773735	     -6.98086435	     10.80423399	     -4.25846082	     -3.39579745	     16.51880374
      1.16683333	     -0.66182158	      2.80638958	     -8.94742137	     -0.05793326	      0.99039250	      0.33136666	    -14.01441798	     -2.58367536	     -1.27426217	    -18.37590869	      8.15763172	      1.58656167	     17.97159067	     20.81154212	      3.44075506	    -11.60003082	     -0.38361254	     -2.78955475	     -7.59462331	     10.82803294	     -4.20720867	     -3.64464020	     16.60179781
      1.17100000	     -0.62330485	      3.00082484	     -9.01368154	     -0.05162524	      0.99031289	      0.33123559	    -13.91611710	     -2.90815712	     -1.33338339	    -19.27366002	      7.76328278	      1.72532315	     18.16463965	     20.73880601	      3.67395951	    -11.23985786	     -0.89872158	     -3.29410052	     -8.18471804	     10.85025425	     -4.14178384	     -3.89958650	     16.67463243
      1.17516667	     -0.57329685	      3.20626285	     -9.07736958	     -0.04530517	      0.99028849	      0.33107944	    -13.79903903	     -3.24908432	     -1.39497275	    -20.22085456	      7.32198106	      1.86742808	     18.38353475	     20.64939507	      3.92052006	    -10.91077382	     -1.40758731	     -3.79378747	     -8.72309618	     10.86728198	     -4.08449319	     -4.16313437	     16.73506808
      1.17933333	     -0.47216225	      3.39358087	     -9.08506479	     -0.03898895	      0.99037909	      0.33086960	    -13.75179225	     -3.55773633	     -1.47115604	    -21.13497241	      6.74413501	      1.87339136	     19.48176797	     20.50235929	      4.17612444	    -10.47966718	     -1.91733531	     -4.32058794	     -9.40564217	     10.93315814	     -4.10634409	     -4.42461723	     16.77093116
      1.18350000	     -0.46180008	      3.62408389	     -9.17031071	     -0.03269288	      0.99035774	      0.33069367	    -13.48896260	     -3.93908642	     -1.53740540	    -22.25534881	      6.30515664	      2.11162089	     19.70794733	     20.48274486	      4.42243070	    -10.34423688	     -2.48711267	     -4.71126489	     -9.71701509	     10.93655817	     -3.99312427	     -4.70411011	     16.80585477
      1.18766667	     -0.38323922	      3.84167550	     -9.18421366	     -0.02639768	      0.99047895	      0.33045069	    -13.32263851	     -4.29147635	     -1.62607693	    -23.32200848	      5.68665034	      2.10737347	     23.47384887	     20.37763079	      4.69387082	    -10.06086102	     -3.03616059	     -5.11834756	    -10.19202724	     10.92229545	     -3.98000145	     -5.00139617	     16.77368987
      1.19183333	     -0.32779187	      4.05916123	     -9.23342082	     -0.02011676	      0.99061064	      0.33021771	    -13.07358364	     -4.65782678	     -1.68695013	    -24.48520901	      5.06326360	      2.27837425	     23.52403313	     20.29619149	      4.94388122	     -9.91334757	     -3.58453989	     -5.49630026	    -10.50469948	     10.91305051	     -3.92976104	     -5.26350891	     16.82388039
      1.19600000	     -0.27637933	      4.27673983	     -9.24542216	     -0.01387314	      0.99076798	      0.32993604	    -12.79796122	     -5.01260148	     -1.75412546	    -25.68365782	      4.41685958	      2.39153464	     23.63815782	     20.22958701	      5.20459990	     -9.72340938	     -4.15863736	     -5.83380216	    -10.88787508	     10.89311029	     -3.88742191	     -5.54873314	     16.82164434
      1.20016667	     -0.20594398	      4.50022584	     -9.25880378	     -0.00762998	      0.99098568	      0.32964761	    -12.50819716	     -5.38049746	     -1.81562487	    -26.93367020	      3.70812416	      2.46246334	     23.75810579	     20.12737948	      5.47260375	     -9.58401991	     -4.70030713	     -6.12394478	    -11.13846386	     10.87023612	     -3.85562879	     -5.82441919	     16.78095849
      1.20433333	     -0.14370732	      4.72105804	     -9.25207168	     -0.00143335	      0.99121174	      0.32931537	    -12.17859922	     -5.74194448	     -1.87738145	    -28.23258446	      2.99033446	      2.54873136	     23.93571884	     20.04557350	      5.74200719	     -9.44249950	     -5.26910015	     -6.37469412	    -11.42238874	     10.83493526	     -3.82564226	     -6.10621819	     16.72565051
      1.20850000	     -0.04812646	      4.94082158	     -9.23297792	      0.00474073	      0.99152153	      0.32899117	    -11.87012732	     -6.09704104	     -1.90690944	    -29.54307917	      2.19035364	      2.55845337	     24.03946171	     19.92453475	      6.01493322	     -9.33733075	     -5.83659255	     -6.53288423	    -11.56360156	     10.81171187	     -3.85234816	     -6.40897169	     16.66135571
      1.21266667	     -0.00419242	      5.15121124	     -9.19564760	      0.01084150	      0.99175822	      0.32859667	    -11.45293359	     -6.44307525	     -1.96550812	    -30.95106991	      1.45739269	      2.64153471	     24.29577617	     19.86561264	      6.27805844	     -9.21337534	     -6.41460885	     -6.71154969	    -11.82878887	     10.75052349	     -3.81784250	     -6.66900043	     16.54925814
      1.21683333	      0.10617204	      5.36012557	     -9.15225983	      0.01693392	      0.99213966	      0.32819416	    -11.10287753	     -6.78950957	     -1.99339467	    -32.33924057	      0.58620921	      2.54151585	     27.00981233	     19.69143781	      6.56676352	     -9.01547547	     -6.90380819	     -6.86771267	    -12.15893993	     10.01942168	     -3.86755823	     -6.93100840	     16.38718443
